<?xml version="1.0" encoding="UTF-8"?>
<svg id="Layer_1" data-name="Layer 1" xmlns="http://www.w3.org/2000/svg" viewBox="0 0 1799.42 427.62">
  <path d="m141.51,380.82C53.41,380.82,0,318.84,0,230.06S53.41,79.29,141.51,79.29s141.51,61.98,141.51,150.77-53.41,150.77-141.51,150.77Zm0-48.02c55.06,0,83.69-44.11,83.69-102.74s-28.63-102.74-83.69-102.74-83.69,43.55-83.69,102.74,28.63,102.74,83.69,102.74Z"/>
  <path d="m445.16,380.82c-88.1,0-141.51-61.98-141.51-150.77s53.41-150.77,141.51-150.77,141.51,61.98,141.51,150.77-53.41,150.77-141.51,150.77Zm0-48.02c55.06,0,83.69-44.11,83.69-102.74s-28.63-102.74-83.69-102.74-83.69,43.55-83.69,102.74,28.63,102.74,83.69,102.74Z"/>
  <path d="m132.34,26.93h71.03l89.2,147.42h.55L382.87,26.93h71.03l-123.34,194.32,133.25,204.93h-76.54l-94.15-155.79h-.55l-93.6,155.79h-76.54l133.25-203.81L132.34,26.93Z"/>
  <path d="m321.13,83.51v342.67h-58.37V83.51h58.37Z"/>
  <path d="m290.38,0c17.08,0,28.46,13.16,28.46,30.54,0,16.91-11.39,30.06-28.46,30.06-17.51,0-28.46-13.16-28.46-30.07C261.91,13.15,272.86,0,290.38,0Z"/>
  <g>
    <path d="m653.35,25.49h70.74l88.83,148.48h.55l89.38-148.48h70.74l-122.83,195.72,132.7,206.4h-76.22l-93.77-156.91h-.55l-93.22,156.91h-76.22l132.7-205.28-122.83-196.84Z"/>
    <path d="m1120.56,427.62c-87.74,0-140.93-61.24-140.93-148.97s53.19-148.97,140.93-148.97,140.93,61.24,140.93,148.97-53.19,148.97-140.93,148.97Zm0-47.45c54.84,0,83.35-43.59,83.35-101.52s-28.51-101.52-83.35-101.52-83.35,43.04-83.35,101.52,28.51,101.52,83.35,101.52Z"/>
    <path d="m1360.74,25.49v402.12h-58.12V25.49h58.12Z"/>
    <path d="m1412.28,60.27c0-20.25,16.45-30.94,32.35-30.94,17,0,32.9,10.69,32.9,30.94s-15.9,31.5-32.9,31.5c-15.9,0-32.35-11.25-32.35-31.5Zm61.42,79.88v287.46h-57.58V140.16h57.58Z"/>
    <path d="m1658.49,427.62c-87.74,0-140.93-61.24-140.93-148.97s53.19-148.97,140.93-148.97,140.93,61.24,140.93,148.97-53.19,148.97-140.93,148.97Zm0-47.45c54.84,0,83.35-43.59,83.35-101.52s-28.51-101.52-83.35-101.52-83.35,43.04-83.35,101.52,28.51,101.52,83.35,101.52Z"/>
  </g>
</svg>